/* XPM */
static char * sc68icon_xpm[] = {
"32 32 51 1",
" 	c None",
".	c #F7F7F7",
"+	c #E7E7E7",
"@	c #D6D6D6",
"#	c #F7B5B5",
"$	c #C6C6C6",
"%	c #000000",
"&	c #424242",
"*	c #D69494",
"=	c #949494",
"-	c #848484",
";	c #525252",
">	c #A5A5A5",
",	c #636363",
"'	c #B5B5B5",
")	c #C68484",
"!	c #E7A5A5",
"~	c #737373",
"{	c #B57373",
"]	c #840084",
"^	c #521094",
"/	c #420084",
"(	c #4200C6",
"_	c #1010D6",
":	c #1052D6",
"<	c #105294",
"[	c #008484",
"}	c #109452",
"|	c #21A563",
"1	c #10D610",
"2	c #00C642",
"3	c #21E721",
"4	c #E7E721",
"5	c #F7F731",
"6	c #317331",
"7	c #D6D610",
"8	c #A5A563",
"9	c #E7A521",
"0	c #F77331",
"a	c #F7F7B5",
"b	c #840042",
"c	c #F73131",
"d	c #E72121",
"e	c #636321",
"f	c #848442",
"g	c #D61010",
"h	c #A52121",
"i	c #C60042",
"j	c #212121",
"k	c #216363",
"l	c #317373",
".........................+@@#$#%",
"@@@.&&&&.@&&&&.$&#@#$#&&&*==--=%",
"@.+;>..+.,*@..@,+#@$#,'#@;=)==-%",
"+@@.,=..@,@+@@@,,,,!$#,,,>>=>*,%",
"@#@@@~=..~-@@@@~#@$~#,''@,!=*'-%",
"#@#----~.---{-.-----@--~--#>>!-%",
"#@@)==)=..~===.#====@#=)=@'*>'-%",
"#$#@#...+@+@@..@###@+#@+@!'>*>~%",
"$#@#@$@#,--#@&,,>$&,,>'!'!'!>>-%",
"##$#@#@@,]]@#&]]@#&]]#'!'!'>*--%",
"#$#@#@##;^/+#&/^@#&^/#'!''*>~>=%",
"$##$##$#,((@#&(_@#,_(@#>>*>-#>)%",
"!''!'$#',__.$&__.$;__@'*===>>-=%",
"'*'!'!'#,:<.#&:<.>,:<+!==-)-;,>%",
">>!''!'',[[.$&[[.>;[[@>>===--->%",
"!>>*'!'!&}|+>&}|+>,|}.>*=)=~-*>%",
">*>>>>>>&11.>&21.>,21.*==-=->>>%",
">>*>*>*-&33.>&33.>;33.>>=)--*>*%",
"*->>>=--&45.>&44.*644+!=~=---='%",
"==)>)==,&77.8,77.>,77.'==-~-=)'%",
"====-==;&99+>,99.>,99.#-{---==!%",
"=)===)=,&00.-;00a-;00a$-~--~)=$%",
"=--~---&bcd.>ecd.-fcc!.------=#%",
"-~---~,&dg=#-,gd.->=gh+*-~--~-#%",
"-----,&bbb.--,bb.~-#bib+#=----'%",
"&&jjj&]]].-~-,...---@]]]..+.+.!%",
"^/](]^/^.--~-~--~--,~@^/^/^^^/'%",
"(_(_(_.+-~,~-~~~~~,~,,..(((((('%",
"......#-;~~,~~,~,~~,,;>+......>%",
"~;,;,;,,,,~~~,~-~~;,k,,~~~-~--=%",
"~~~,,l,;l,~,~~~~-~k,,,~,~----~=%",
">>=>>#'##@@$@$@@..#$#>>>'#'>*>*%"};
